<svg width="20" height="20" viewBox="0 0 20 20" fill="none" xmlns="http://www.w3.org/2000/svg">
<path fill-rule="evenodd" clip-rule="evenodd" d="M4 0C1.79086 0 0 1.79086 0 4V16C0 18.2091 1.79086 20 4 20H16C18.2091 20 20 18.2091 20 16V4C20 1.79086 18.2091 0 16 0H4ZM5.33337 9.33332C5.33337 8.59694 5.93033 7.99999 6.66671 7.99999C7.40309 7.99999 8.00004 8.59694 8.00004 9.33332V10.6667C8.00004 11.403 7.40309 12 6.66671 12C5.93033 12 5.33337 11.403 5.33337 10.6667V9.33332ZM11.9999 9.33332C11.9999 8.59694 12.5969 7.99999 13.3333 7.99999C14.0697 7.99999 14.6666 8.59694 14.6666 9.33332V10.6667C14.6666 11.403 14.0697 12 13.3333 12C12.5969 12 11.9999 11.403 11.9999 10.6667V9.33332Z" fill="url(#paint0_linear)"/>
<defs>
<linearGradient id="paint0_linear" x1="10" y1="10" x2="10" y2="20" gradientUnits="userSpaceOnUse">
<stop stop-color="#5E3DE4"/>
<stop offset="1" stop-color="#169BE6"/>
</linearGradient>
</defs>
</svg>
