<svg width="40" height="25" viewBox="0 0 40 25" fill="none" xmlns="http://www.w3.org/2000/svg">
<path d="M1 15.5548H1.23597C2.37626 15.5548 3.45256 15.0279 4.15193 14.1273V14.1273C5.71061 12.1201 8.64807 11.8644 10.5301 13.5722L11.77 14.6973C13.1787 15.9756 15.3518 15.8893 16.6547 14.5033L18.1143 12.9507C19.0066 12.0015 20.4515 11.8297 21.5415 12.5432L22.1333 12.9306C24.0689 14.1975 26.6736 13.134 27.1693 10.8744V10.8744C28.0559 6.83281 32.4564 4.65092 36.2101 6.3918L39 7.68568" stroke="#34B56F" stroke-width="2" stroke-linecap="round"/>
<path opacity="0.24" d="M1.22063 15.8556H1V24H39V7.79791L36.3382 6.53389C32.5394 4.72988 28.0519 6.94315 27.1709 11.0553C26.6781 13.3557 24.0188 14.4322 22.0646 13.1223L21.5496 12.7772C20.4609 12.0475 19.0025 12.2216 18.1161 13.1871L16.6508 14.7832C15.359 16.1902 13.1688 16.2772 11.7695 14.977L10.5529 13.8466C8.67288 12.0998 5.69554 12.3584 4.14481 14.4032C3.45096 15.3181 2.36889 15.8556 1.22063 15.8556Z" fill="url(#paint0_linear)"/>
<defs>
<linearGradient id="paint0_linear" x1="20" y1="-1.94118" x2="20" y2="24" gradientUnits="userSpaceOnUse">
<stop stop-color="#34B56F"/>
<stop offset="1" stop-color="#34B56F" stop-opacity="0"/>
</linearGradient>
</defs>
</svg>
