<?xml version="1.0" encoding="UTF-8"?>
<svg width="209px" height="60px" viewBox="0 0 209 60" version="1.1" xmlns="http://www.w3.org/2000/svg" xmlns:xlink="http://www.w3.org/1999/xlink">
    <title>logo-freya-white</title>
    <g id="Page-1" stroke="none" stroke-width="1" fill="none" fill-rule="evenodd">
        <g id="logo-freya-white" fill="#FFFFFF" fill-rule="nonzero">
            <polygon id="Path" points="0 0 15.8827941 0 15.8827941 10.1321425 45 4.41666667 45 17.6666667 15.8827941 23.3821425 15.8827941 27.7988092 45 22.0833333 45 35.3333333 15.8827941 41.0488092 15.8827941 53 0 53"></polygon>
            <path d="M84,20.8302387 L77.2821159,20.8302387 L77.2821159,18.9204244 C77.2821159,17.4350133 78.1284635,16.5862069 79.6095718,16.5862069 L83.9471033,16.5862069 L83.9471033,9 L77.070529,9 C71.0403023,9 67.8664987,12.3421751 67.8664987,18.1246684 L67.8664987,20.8302387 L63,20.8302387 L63.0528967,28.5755968 L67.7607053,28.5755968 L67.7607053,49 L77.5994962,49 L77.5994962,28.5755968 L84,28.5755968 L84,20.8302387 Z" id="Path"></path>
            <path d="M105.301136,21 C101.846591,21 99.3636364,21.9630996 97.3125,24.3173432 L95.7471591,21.1070111 L89,21.1070111 L89,50 L99.0397727,50 L99.0397727,35.3394834 C99.0397727,31.6476015 100.551136,30.095941 104.059659,30.095941 L108,30.095941 L108,21 L105.301136,21 Z" id="Path"></path>
            <path d="M141,35.2034783 C141,26.6852174 134.662692,20 125.473595,20 C116.495741,20 110,26.5773913 110,35.4730435 C110,44.3686957 116.548552,51 125.473595,51 C132.603066,51 138.412266,46.8486957 140.41908,40.2173913 L130.596252,40.2173913 C129.698467,41.9426087 127.744463,42.9669565 125.473595,42.9669565 C122.357751,42.9669565 120.298126,41.2417391 119.664395,37.8991304 L140.841567,37.8991304 C140.947189,36.9826087 141,36.12 141,35.2034783 Z M125.473595,27.8713043 C128.431005,27.8713043 130.49063,29.4347826 131.335605,32.346087 L119.822828,32.346087 C120.614991,29.4347826 122.621806,27.8713043 125.473595,27.8713043 Z" id="Shape"></path>
            <path d="M165.423077,21 L159.764423,36.6842105 L153.682692,21 L143,21 L154.793269,47.1052632 C153.471154,50.6315789 152.360577,51.6315789 148.605769,51.6315789 L145.855769,51.6315789 L145.855769,60 L149.240385,60 C156.644231,60 160.134615,56.8947368 163.995192,48.1578947 L176,21 L165.423077,21 Z" id="Path"></path>
            <path d="M201.660066,20.8641115 L200.656766,23.1324042 C198.333333,21.1341463 195.323432,20 191.943894,20 C183.231023,20 177,26.4268293 177,35.445993 C177,44.5191638 183.231023,51 191.943894,51 C195.270627,51 198.227723,49.9198606 200.551155,47.9756098 L201.39604,50.0278746 L209,50.0278746 L209,20.8641115 L201.660066,20.8641115 Z M193.264026,42.1428571 C189.567657,42.1428571 186.874587,39.2804878 186.874587,35.445993 C186.874587,31.6655052 189.567657,28.8571429 193.264026,28.8571429 C196.960396,28.8571429 199.653465,31.6655052 199.653465,35.445993 C199.653465,39.2804878 196.960396,42.1428571 193.264026,42.1428571 Z" id="Shape"></path>
        </g>
    </g>
</svg>