<svg width="49" height="29" viewBox="0 0 49 29" fill="none" xmlns="http://www.w3.org/2000/svg">
<g clip-path="url(#clip0)">
<path d="M13.802 10.5323C13.802 11.129 13.8672 11.6129 13.9813 11.9677C14.1116 12.3226 14.2746 12.7097 14.5027 13.129C14.5842 13.2581 14.6168 13.3871 14.6168 13.5C14.6168 13.6613 14.519 13.8226 14.3072 13.9839L13.2806 14.6613C13.1339 14.7581 12.9873 14.8064 12.8569 14.8064C12.6939 14.8064 12.531 14.7258 12.368 14.5806C12.1399 14.3387 11.9444 14.0806 11.7814 13.8226C11.6184 13.5484 11.4555 13.2419 11.2762 12.871C10.0052 14.3548 8.40827 15.0968 6.48542 15.0968C5.11662 15.0968 4.02483 14.7097 3.22636 13.9355C2.42789 13.1613 2.02051 12.129 2.02051 10.8387C2.02051 9.46774 2.50937 8.35483 3.50338 7.51613C4.49739 6.67742 5.81731 6.25806 7.49573 6.25806C8.04977 6.25806 8.62011 6.30645 9.22303 6.38709C9.82596 6.46774 10.4452 6.59677 11.097 6.74193V5.56451C11.097 4.33871 10.8363 3.48387 10.3311 2.98387C9.80967 2.48387 8.92972 2.24193 7.67498 2.24193C7.10464 2.24193 6.51801 2.30645 5.91509 2.45161C5.31216 2.59677 4.72553 2.77419 4.15519 3C3.89447 3.1129 3.69892 3.17742 3.58486 3.20968C3.47079 3.24193 3.38931 3.25806 3.32413 3.25806C3.096 3.25806 2.98193 3.09677 2.98193 2.75806V1.96774C2.98193 1.70968 3.01452 1.51613 3.096 1.40323C3.17747 1.29032 3.32413 1.17742 3.55227 1.06452C4.1226 0.774193 4.80701 0.532258 5.60548 0.33871C6.40395 0.129032 7.2513 0.032258 8.14754 0.032258C10.0867 0.032258 11.5044 0.467742 12.4169 1.33871C13.3132 2.20968 13.7694 3.53226 13.7694 5.30645V10.5323H13.802ZM7.18612 12.9839C7.72387 12.9839 8.27791 12.8871 8.86454 12.6935C9.45117 12.5 9.97262 12.1452 10.4126 11.6613C10.6733 11.3548 10.8689 11.0161 10.9666 10.629C11.0644 10.2419 11.1296 9.77419 11.1296 9.2258V8.54838C10.657 8.43548 10.1519 8.33871 9.63042 8.27419C9.10897 8.20967 8.60381 8.17742 8.09866 8.17742C7.00687 8.17742 6.2084 8.38709 5.67066 8.82258C5.13291 9.25806 4.87219 9.87096 4.87219 10.6774C4.87219 11.4355 5.06773 12 5.47511 12.3871C5.8662 12.7903 6.43654 12.9839 7.18612 12.9839ZM20.2713 14.7258C19.9779 14.7258 19.7824 14.6774 19.652 14.5645C19.5217 14.4677 19.4076 14.2419 19.3098 13.9355L15.4804 1.46774C15.3827 1.14516 15.3338 0.935483 15.3338 0.82258C15.3338 0.564516 15.4641 0.419355 15.7249 0.419355H17.3218C17.6314 0.419355 17.8433 0.467742 17.9573 0.580645C18.0877 0.677419 18.1855 0.903225 18.2832 1.20968L21.0208 11.8871L23.5629 1.20968C23.6444 0.887096 23.7422 0.677419 23.8725 0.580645C24.0029 0.483871 24.231 0.419355 24.5243 0.419355H25.828C26.1376 0.419355 26.3494 0.467742 26.4798 0.580645C26.6101 0.677419 26.7242 0.903225 26.7894 1.20968L29.364 12.0161L32.1831 1.20968C32.2809 0.887096 32.395 0.677419 32.509 0.580645C32.6394 0.483871 32.8512 0.419355 33.1445 0.419355H34.66C34.9207 0.419355 35.0674 0.548387 35.0674 0.82258C35.0674 0.903225 35.0511 0.98387 35.0348 1.08064C35.0185 1.17742 34.9859 1.30645 34.9207 1.48387L30.9936 13.9516C30.8958 14.2742 30.7817 14.4839 30.6514 14.5806C30.521 14.6774 30.3092 14.7419 30.0321 14.7419H28.6307C28.3211 14.7419 28.1093 14.6935 27.9789 14.5806C27.8486 14.4677 27.7345 14.2581 27.6693 13.9355L25.1436 3.53226L22.6341 13.9193C22.5526 14.2419 22.4548 14.4516 22.3245 14.5645C22.1941 14.6774 21.966 14.7258 21.6727 14.7258H20.2713ZM41.2107 15.1613C40.3634 15.1613 39.516 15.0645 38.7013 14.871C37.8865 14.6774 37.251 14.4677 36.8273 14.2258C36.5666 14.0806 36.3873 13.9193 36.3221 13.7742C36.257 13.629 36.2244 13.4677 36.2244 13.3226V12.5C36.2244 12.1613 36.3547 12 36.5992 12C36.6969 12 36.7947 12.0161 36.8925 12.0484C36.9902 12.0806 37.1369 12.1452 37.2999 12.2097C37.8539 12.4516 38.4568 12.6452 39.0923 12.7742C39.7441 12.9032 40.3797 12.9677 41.0315 12.9677C42.0581 12.9677 42.8566 12.7903 43.4106 12.4355C43.9646 12.0806 44.2579 11.5645 44.2579 10.9032C44.2579 10.4516 44.1113 10.0806 43.818 9.77419C43.5247 9.46774 42.9706 9.19354 42.1721 8.93548L39.8093 8.20967C38.6198 7.83871 37.7398 7.29032 37.2021 6.56451C36.6643 5.85484 36.3873 5.06451 36.3873 4.2258C36.3873 3.54839 36.534 2.95161 36.8273 2.43548C37.1206 1.91935 37.5117 1.46774 38.0006 1.1129C38.4894 0.741935 39.0435 0.467742 39.6953 0.274193C40.3471 0.0806451 41.0315 0 41.7485 0C42.107 0 42.4818 0.016129 42.8403 0.0645161C43.215 0.112903 43.5573 0.177419 43.8995 0.241935C44.2254 0.32258 44.535 0.403226 44.8283 0.5C45.1216 0.596774 45.3497 0.693548 45.5127 0.790322C45.7408 0.919354 45.9038 1.04839 46.0015 1.19355C46.0993 1.32258 46.1482 1.5 46.1482 1.72581V2.48387C46.1482 2.82258 46.0178 3 45.7734 3C45.6431 3 45.4312 2.93548 45.1542 2.80645C44.2254 2.3871 43.1825 2.17742 42.0255 2.17742C41.0967 2.17742 40.3634 2.32258 39.8582 2.62903C39.3531 2.93548 39.0923 3.40322 39.0923 4.06451C39.0923 4.51613 39.2553 4.90322 39.5812 5.20967C39.9071 5.51613 40.51 5.82258 41.3737 6.09677L43.6876 6.82258C44.8609 7.19354 45.7082 7.70967 46.2134 8.37096C46.7185 9.03225 46.963 9.79032 46.963 10.629C46.963 11.3226 46.8163 11.9516 46.5393 12.5C46.246 13.0484 45.8549 13.5323 45.3497 13.9193C44.8446 14.3226 44.2417 14.6129 43.541 14.8226C42.8077 15.0484 42.0418 15.1613 41.2107 15.1613Z" fill="#252F3E"/>
<path d="M44.2907 23C38.9296 26.9194 31.1404 29 24.4431 29C15.057 29 6.59969 25.5645 0.211929 19.8548C-0.293225 19.4032 0.163043 18.7903 0.76597 19.1452C7.67518 23.1129 16.1976 25.5161 25.0134 25.5161C30.9612 25.5161 37.4956 24.2903 43.5086 21.7742C44.4048 21.371 45.1707 22.3548 44.2907 23ZM46.5232 20.4839C45.8388 19.6129 41.9931 20.0645 40.2495 20.2742C39.7281 20.3387 39.6466 19.8871 40.1191 19.5484C43.1827 17.4194 48.2179 18.0323 48.8045 18.7419C49.3912 19.4677 48.6416 24.4516 45.7736 26.8387C45.3336 27.2097 44.91 27.0161 45.1055 26.5323C45.7573 24.9355 47.2076 21.3387 46.5232 20.4839Z" fill="#FF9900"/>
</g>
<defs>
<clipPath id="clip0">
<rect width="49" height="29" fill="white"/>
</clipPath>
</defs>
</svg>
