<?xml version="1.0" encoding="UTF-8"?>
<svg width="446px" height="129px" viewBox="0 0 446 129" version="1.1" xmlns="http://www.w3.org/2000/svg" xmlns:xlink="http://www.w3.org/1999/xlink">
    <title>logo-freya</title>
    <defs>
        <linearGradient x1="28.4476672%" y1="1.54220833e-07%" x2="49.999861%" y2="100%" id="linearGradient-1">
            <stop stop-color="#297FFF" offset="0%"></stop>
            <stop stop-color="#7A0EE7" offset="100%"></stop>
        </linearGradient>
        <linearGradient x1="75.0238871%" y1="-21.5732317%" x2="40.5406822%" y2="100.001105%" id="linearGradient-2">
            <stop stop-color="#297FFF" offset="0%"></stop>
            <stop stop-color="#7616E8" offset="100%"></stop>
        </linearGradient>
        <linearGradient x1="37.9032258%" y1="-69.125861%" x2="-21.2207927%" y2="100.001538%" id="linearGradient-3">
            <stop stop-color="#297FFF" offset="0%"></stop>
            <stop stop-color="#7616E8" offset="100%"></stop>
        </linearGradient>
        <linearGradient x1="-55.9426462%" y1="-59.1651756%" x2="-141.121522%" y2="95.4614408%" id="linearGradient-4">
            <stop stop-color="#297FFF" offset="0%"></stop>
            <stop stop-color="#7616E8" offset="100%"></stop>
        </linearGradient>
        <linearGradient x1="-89.5003908%" y1="-50.8316014%" x2="-145.407143%" y2="72.8756185%" id="linearGradient-5">
            <stop stop-color="#297FFF" offset="0%"></stop>
            <stop stop-color="#7616E8" offset="100%"></stop>
        </linearGradient>
        <linearGradient x1="-319.994499%" y1="-50.1302194%" x2="-402.50275%" y2="91.589373%" id="linearGradient-6">
            <stop stop-color="#297FFF" offset="0%"></stop>
            <stop stop-color="#7616E8" offset="100%"></stop>
        </linearGradient>
    </defs>
    <g id="Page-1" stroke="none" stroke-width="1" fill="none" fill-rule="evenodd">
        <g id="logo-freya" fill-rule="nonzero">
            <polygon id="Path" fill="url(#linearGradient-1)" points="0 0 33.8832941 0 33.8832941 21.793665 96 9.5 96 38 33.8832941 50.293665 33.8832941 59.793665 96 47.5 96 76 33.8832941 88.293665 33.8832941 114 0 114"></polygon>
            <path d="M181,45.4350133 L166.604534,45.4350133 L166.604534,41.3289125 C166.604534,38.1352785 168.418136,36.3103448 171.59194,36.3103448 L180.88665,36.3103448 L180.88665,20 L166.151134,20 C153.229219,20 146.428212,27.1856764 146.428212,39.6180371 L146.428212,45.4350133 L136,45.4350133 L136.11335,62.0875332 L146.201511,62.0875332 L146.201511,106 L167.284635,106 L167.284635,62.0875332 L181,62.0875332 L181,45.4350133 Z" id="Path" fill="url(#linearGradient-2)"></path>
            <path d="M225.318182,44 C218.045455,44 212.818182,46.0590406 208.5,51.0922509 L205.204545,44.2287823 L191,44.2287823 L191,106 L212.136364,106 L212.136364,74.6568266 C212.136364,66.7638376 215.318182,63.4464945 222.704545,63.4464945 L231,63.4464945 L231,44 L225.318182,44 Z" id="Path" fill="url(#linearGradient-3)"></path>
            <path d="M304,73.8782609 C304,56.0173913 290.507666,42 270.943782,42 C251.829642,42 238,55.7913043 238,74.4434783 C238,93.0956522 251.942078,107 270.943782,107 C286.122658,107 298.49063,98.2956522 302.763203,84.3913043 L281.850085,84.3913043 C279.938671,88.0086957 275.778535,90.1565217 270.943782,90.1565217 C264.310051,90.1565217 259.925043,86.5391304 258.575809,79.5304348 L303.662692,79.5304348 C303.887564,77.6086957 304,75.8 304,73.8782609 Z M270.943782,58.5043478 C277.240204,58.5043478 281.625213,61.7826087 283.424191,67.8869565 L258.913118,67.8869565 C260.599659,61.7826087 264.872232,58.5043478 270.943782,58.5043478 Z" id="Shape" fill="url(#linearGradient-4)"></path>
            <path d="M353.24359,44 L341.06891,78.1835358 L327.983974,44 L305,44 L330.373397,100.896086 C327.528846,108.581646 325.139423,110.761134 317.060897,110.761134 L311.144231,110.761134 L311.144231,129 L318.426282,129 C334.355769,129 341.865385,122.232119 350.171474,103.190283 L376,44 L353.24359,44 Z" id="Path" fill="url(#linearGradient-5)"></path>
            <path d="M430.173267,43.8118467 L428.009901,48.5679443 C423,44.3780488 416.509901,42 409.222772,42 C390.435644,42 377,55.4756098 377,74.3867596 C377,93.4111498 390.435644,107 409.222772,107 C416.39604,107 422.772277,104.735192 427.782178,100.658537 L429.60396,104.961672 L446,104.961672 L446,43.8118467 L430.173267,43.8118467 Z M412.069307,88.4285714 C404.09901,88.4285714 398.292079,82.4268293 398.292079,74.3867596 C398.292079,66.4599303 404.09901,60.5714286 412.069307,60.5714286 C420.039604,60.5714286 425.846535,66.4599303 425.846535,74.3867596 C425.846535,82.4268293 420.039604,88.4285714 412.069307,88.4285714 Z" id="Shape" fill="url(#linearGradient-6)"></path>
        </g>
    </g>
</svg>