<svg width="40" height="25" viewBox="0 0 40 25" fill="none" xmlns="http://www.w3.org/2000/svg">
<path opacity="0.24" d="M1.5789 7H1V23.5H39V16.5L31.0118 10.1094C29.8216 9.15729 28.1438 9.11157 26.9035 9.99748C26.1264 10.5525 25.0472 10.3774 24.4855 9.60509L23.2844 7.95357C22.3354 6.64863 20.4592 6.46643 19.2768 7.56437L18.0016 8.74848C16.0093 10.5985 12.9435 10.651 10.889 8.87043L9.88848 8.00335C8.09796 6.45157 5.62163 5.95946 3.37384 6.70872C2.79506 6.90165 2.18897 7 1.5789 7Z" fill="url(#paint0_linear)"/>
<path d="M1 6.5L1.99872 6.89949C2.931 7.2724 3.99026 7.1323 4.79354 6.52984V6.52984C6.29049 5.40713 8.41325 5.7049 9.54353 7.19614L11.4476 9.70832C13.2488 12.0847 16.947 11.6203 18.1047 8.87239L18.8423 7.12161C19.6342 5.2418 22.3065 5.26616 23.064 7.16009L24.0208 9.55204C24.4707 10.6767 25.9469 10.9348 26.7516 10.0294V10.0294C27.9714 8.65716 30.0948 8.59476 31.393 9.89304L38 16.5" stroke="#FF6E49" stroke-width="2" stroke-linecap="round"/>
<defs>
<linearGradient id="paint0_linear" x1="20" y1="2.5" x2="20" y2="23.5" gradientUnits="userSpaceOnUse">
<stop stop-color="#FF6E49"/>
<stop offset="1" stop-color="#FF6E49" stop-opacity="0"/>
</linearGradient>
</defs>
</svg>
