<svg width="40" height="25" viewBox="0 0 40 25" fill="none" xmlns="http://www.w3.org/2000/svg">
<path opacity="0.24" d="M1.29792 7.19167L1 6V22.5H39V10L31.0058 8.00144C29.7332 7.68329 28.385 7.93926 27.3176 8.70171C26.307 9.42357 24.905 9.20661 24.1598 8.21307L23.3663 7.15513C22.2505 5.66735 19.9745 5.81442 19.0594 7.43342L16.9744 11.1223C15.8341 13.1397 12.9726 13.2599 11.6672 11.3452L9.13511 7.6315C8.13791 6.16893 5.96075 6.23208 5.05 7.75C4.10899 9.31835 1.74152 8.96606 1.29792 7.19167Z" fill="url(#paint0_linear)"/>
<path d="M1 5.5L2.30163 7.45245C3.07138 8.60707 4.79369 8.52601 5.45158 7.3042V7.3042C6.29848 5.7314 8.57565 5.79473 9.33383 7.41216L11.7817 12.6344C12.9342 15.0929 16.5016 14.8701 17.3392 12.2874L19.1806 6.60989C19.7963 4.71144 22.4491 4.62269 23.1903 6.47575L23.7857 7.96427C24.3436 9.35899 26.1742 9.67901 27.1722 8.55628V8.55628C28.271 7.32013 30.0227 6.89771 31.5641 7.49717L38 10" stroke="#FF6E49" stroke-width="2" stroke-linecap="round"/>
<defs>
<linearGradient id="paint0_linear" x1="20" y1="0.916666" x2="20" y2="22.5" gradientUnits="userSpaceOnUse">
<stop stop-color="#FF6E49"/>
<stop offset="1" stop-color="#FF6E49" stop-opacity="0"/>
</linearGradient>
</defs>
</svg>
