<svg width="40" height="25" viewBox="0 0 40 25" fill="none" xmlns="http://www.w3.org/2000/svg">
<path d="M1.5 17.5L2.61594 16.0935C2.89864 15.7372 3.11605 15.3337 3.25811 14.9016V14.9016C4.62276 10.751 10.4817 10.7159 11.896 14.8499L12.0376 15.2639C12.8063 17.5107 15.8592 17.8152 17.0564 15.7644L17.808 14.4769C18.6475 13.0389 20.7151 13.0096 21.595 14.4232V14.4232C23.12 16.8732 26.8677 16.1197 27.3273 13.2706L27.4426 12.5553C28.0267 8.93415 31.4344 6.47111 35.0561 7.05252L38.9999 7.68568" stroke="#34B56F" stroke-width="2" stroke-linecap="round"/>
<path opacity="0.24" d="M1.22063 15.8556H1V24H39V7.79791L36.58 7.57075C32.8978 7.22509 29.3686 9.12608 27.6312 12.391L27.2225 13.1589C26.0647 15.3346 23.2201 15.9323 21.2845 14.4066C20.2445 13.5868 18.7724 13.6075 17.7558 14.4563L16.7423 15.3025C15.3507 16.4644 13.3122 16.4104 11.9841 15.1764L10.5529 13.8466C8.67288 12.0998 5.69554 12.3584 4.14481 14.4032C3.45096 15.3181 2.36889 15.8556 1.22063 15.8556Z" fill="url(#paint0_linear)"/>
<defs>
<linearGradient id="paint0_linear" x1="20" y1="3" x2="20" y2="24" gradientUnits="userSpaceOnUse">
<stop stop-color="#34B56F"/>
<stop offset="1" stop-color="#34B56F" stop-opacity="0"/>
</linearGradient>
</defs>
</svg>
