<svg width="40" height="25" viewBox="0 0 40 25" fill="none" xmlns="http://www.w3.org/2000/svg">
<path d="M1.5 17.5L2.61594 16.0935C2.89864 15.7372 3.11605 15.3337 3.25811 14.9016L3.64455 13.7262C4.88488 9.95375 10.2101 9.92187 11.4955 13.6792V13.6792C12.268 15.9373 15.4878 15.8603 16.1514 13.5678L17.9064 7.50493C18.4835 5.51127 21.1961 5.23809 22.1591 7.07664L23.5714 9.77282C24.1796 10.9338 25.8382 10.9433 26.4595 9.78932V9.78932C27.4765 7.90073 30.0264 7.52648 31.5432 9.04321L38.0548 15.5548" stroke="#FFA928" stroke-width="2" stroke-linecap="round"/>
<path opacity="0.24" d="M2.34135 16.4205L1 17.5V24H39V15.8556L32.0945 10.1454C30.5339 8.85496 28.3365 8.66805 26.5804 9.67639C25.6401 10.2163 24.458 10.0829 23.6617 9.34683L22.6111 8.37567C21.0637 6.94535 18.5742 7.41753 17.6579 9.3151L16.1994 12.3359C15.3283 14.1401 13.0085 14.6706 11.4397 13.4243C8.86141 11.376 5.0487 12.1685 3.47541 15.0612C3.1912 15.5838 2.80478 16.0476 2.34135 16.4205Z" fill="url(#paint0_linear)"/>
<defs>
<linearGradient id="paint0_linear" x1="20" y1="3" x2="20" y2="24" gradientUnits="userSpaceOnUse">
<stop stop-color="#FFA928"/>
<stop offset="1" stop-color="#FFA928" stop-opacity="0"/>
</linearGradient>
</defs>
</svg>
